<?xml version="1.0" standalone="no"?>
<!DOCTYPE svg PUBLIC "-//W3C//DTD SVG 20010904//EN"
 "http://www.w3.org/TR/2001/REC-SVG-20010904/DTD/svg10.dtd">
<svg version="1.0" xmlns="http://www.w3.org/2000/svg"
 width="512.000000pt" height="512.000000pt" viewBox="0 0 512.000000 512.000000"
 preserveAspectRatio="xMidYMid meet">
<metadata>
Created by potrace 1.16, written by Peter Selinger 2001-2019
</metadata>
<g transform="translate(0.000000,512.000000) scale(0.100000,-0.100000)"
fill="#000000" stroke="none">
<path d="M435 5101 c-205 -60 -367 -225 -420 -428 -13 -50 -15 -326 -15 -2111
0 -2280 -5 -2102 67 -2246 47 -93 152 -199 248 -248 142 -73 -36 -68 2245 -68
2278 0 2100 -5 2244 67 96 48 201 153 249 249 72 144 67 -34 67 2244 0 2278 5
2100 -67 2244 -48 96 -153 201 -249 249 -144 72 35 67 -2250 66 -1931 0 -2063
-2 -2119 -18z m4170 -407 c46 -25 65 -45 91 -94 18 -34 19 -100 19 -2040 0
-1940 -1 -2006 -19 -2040 -26 -49 -45 -69 -91 -94 -39 -21 -48 -21 -652 -24
l-613 -3 0 731 0 730 323 0 323 0 33 277 c18 153 35 293 38 311 l5 32 -362 0
-362 0 4 368 c3 358 4 368 26 417 30 66 93 128 156 156 48 21 68 23 309 27
l257 4 0 293 0 292 -127 14 c-71 8 -209 14 -308 14 -196 0 -248 -10 -393 -76
-253 -114 -457 -361 -522 -630 -18 -77 -20 -118 -20 -481 l0 -398 -325 0 -325
0 0 -310 0 -310 325 0 325 0 0 -730 0 -731 -1082 3 c-1036 3 -1085 4 -1118 22
-49 26 -69 45 -94 91 l-21 40 0 2005 c0 1940 1 2006 19 2040 35 66 75 96 146
111 19 4 926 6 2015 5 l1980 -1 40 -21z"/>
</g>
</svg>
