<?xml version="1.0" standalone="no"?>
<!DOCTYPE svg PUBLIC "-//W3C//DTD SVG 20010904//EN"
 "http://www.w3.org/TR/2001/REC-SVG-20010904/DTD/svg10.dtd">
<svg version="1.0" xmlns="http://www.w3.org/2000/svg"
 width="512.000000pt" height="512.000000pt" viewBox="0 0 512.000000 512.000000"
 preserveAspectRatio="xMidYMid meet">
<metadata>
Created by potrace 1.16, written by Peter Selinger 2001-2019
</metadata>
<g transform="translate(0.000000,512.000000) scale(0.100000,-0.100000)"
fill="#000000" stroke="none">
<path d="M2636 5101 c-16 -11 -38 -34 -50 -53 l-21 -33 -5 -1730 c-4 -1415 -8
-1737 -19 -1770 -81 -242 -301 -405 -545 -405 -82 0 -204 32 -275 72 -72 41
-178 147 -219 219 -40 71 -72 193 -72 275 0 269 210 519 467 555 145 21 177
29 201 51 53 50 52 44 52 519 0 435 0 442 -22 480 -14 26 -37 46 -67 61 -44
21 -49 21 -185 10 -78 -7 -183 -21 -234 -32 -571 -121 -1052 -549 -1237 -1103
-69 -206 -79 -274 -79 -542 -1 -229 1 -246 28 -360 155 -662 642 -1141 1309
-1287 90 -20 130 -23 337 -22 205 0 248 3 334 22 338 75 636 240 866 478 248
256 388 532 458 899 12 66 16 220 19 897 2 450 6 818 7 818 2 0 46 -20 97 -44
241 -114 558 -186 821 -186 106 0 143 15 178 72 19 32 20 52 20 478 0 404 -2
448 -18 479 -30 60 -58 73 -180 83 -255 19 -467 115 -641 289 -167 167 -260
374 -280 622 -9 115 -26 158 -74 187 -31 19 -53 20 -487 20 -431 0 -457 -1
-484 -19z m752 -354 c36 -235 168 -490 345 -671 181 -184 402 -306 650 -357
l107 -22 0 -247 0 -247 -94 13 c-249 35 -495 128 -723 276 -50 32 -108 62
-127 65 -50 8 -120 -21 -148 -60 l-23 -32 -6 -975 c-5 -851 -8 -985 -22 -1057
-119 -585 -570 -1022 -1150 -1113 -100 -16 -311 -13 -424 5 -569 92 -1038 563
-1129 1135 -25 157 -15 400 21 539 138 532 554 925 1084 1025 46 9 85 16 87
16 2 0 4 -112 4 -249 l0 -249 -67 -16 c-101 -25 -256 -106 -342 -178 -134
-113 -233 -268 -283 -443 -30 -105 -33 -342 -4 -445 87 -317 319 -548 636
-636 102 -28 339 -26 445 4 248 71 444 232 555 457 93 189 84 3 87 1878 l3
1657 253 0 253 0 12 -73z"/>
</g>
</svg>
